<svg width="28" height="28" fill="none" xmlns="http://www.w3.org/2000/svg"><path d="M2.74 12.278a2.502 2.502 0 0 1 .648-2.417l6.473-6.473a2.502 2.502 0 0 1 2.417-.647l6.057 1.623a4.56 4.56 0 0 1 .835-2.304L11.876.105a3.088 3.088 0 0 0-2.983.8L.904 8.891a3.088 3.088 0 0 0-.799 2.983l2.03 7.575a4.556 4.556 0 0 1 2.284-.91L2.74 12.279ZM23.525 9.25l1.735 6.471a2.501 2.501 0 0 1-.648 2.417l-6.473 6.473a2.502 2.502 0 0 1-2.417.648L9.459 23.58a4.555 4.555 0 0 1-.91 2.284l7.576 2.03a3.086 3.086 0 0 0 2.983-.8l7.988-7.988a3.088 3.088 0 0 0 .799-2.983l-2.106-7.858c-.65.53-1.433.87-2.264.984Z" fill="#18CDCA"/><path d="M2.317 20.495a3.668 3.668 0 1 0 5.187 5.188 3.668 3.668 0 0 0-5.187-5.188ZM20.305 2.128a3.668 3.668 0 1 0 5.187 5.187 3.668 3.668 0 0 0-5.187-5.187ZM16.154 23.723c-.148 0-.294-.02-.437-.057L9.985 22.13a5.15 5.15 0 0 0-4.115-4.115l-1.536-5.732a1.69 1.69 0 0 1 .437-1.628l5.883-5.884a1.686 1.686 0 0 1 1.629-.437l5.572 1.493a5.153 5.153 0 0 0 4.231 3.994l1.58 5.896a1.69 1.69 0 0 1-.437 1.629l-5.883 5.884a1.674 1.674 0 0 1-1.192.493Z" fill="#5B4FD7"/></svg>